<svg xmlns="http://www.w3.org/2000/svg" width="1200" height="630" viewBox="0 0 1200 630" role="img" aria-label="Flight Card preview">
  <defs>
    <linearGradient id="bg" x1="0" y1="0" x2="1" y2="1">
      <stop offset="0%" stop-color="#0f172a" />
      <stop offset="100%" stop-color="#1e293b" />
    </linearGradient>
    <linearGradient id="map" x1="0" y1="0" x2="1" y2="1">
      <stop offset="0%" stop-color="#d9f2d2" />
      <stop offset="100%" stop-color="#c2e7f9" />
    </linearGradient>
  </defs>
  <rect width="1200" height="630" fill="url(#bg)" />
  <rect x="110" y="90" width="980" height="450" rx="22" fill="#f8fafc" opacity="0.96" />
  <text x="150" y="160" fill="#111827" font-family="Segoe UI, Arial, sans-serif" font-size="44" font-weight="700">Flight Card</text>
  <text x="150" y="205" fill="#4b5563" font-family="Segoe UI, Arial, sans-serif" font-size="24">Home Assistant custom card + backend integration</text>
  <rect x="150" y="235" width="900" height="265" rx="14" fill="url(#map)" stroke="#cbd5e1" />
  <g fill="#0f172a" opacity="0.9">
    <path d="M220 390l28-58 28 58h-20v52h-16v-52h-20z"/>
    <path d="M450 340l28-58 28 58h-20v102h-16V340h-20z"/>
    <path d="M710 360l28-58 28 58h-20v82h-16v-82h-20z"/>
    <path d="M940 320l28-58 28 58h-20v122h-16V320h-20z"/>
  </g>
  <text x="150" y="565" fill="#94a3b8" font-family="Segoe UI, Arial, sans-serif" font-size="20">Live aircraft map powered by SkyAware + HexDB</text>
</svg>
